<svg width="60" height="60" viewBox="0 -1.5 60 60" xmlns="http://www.w3.org/2000/svg"><g fill="none" fill-rule="evenodd" id="Page-1" stroke="none" stroke-width="1"><g fill="#000" id="001---Headphones"><path d="M9 47a1 1 0 0 0 1-1v-7a1 1 0 0 0-2 0v7a1 1 0 0 0 1 1ZM9.037 49.135a1 1 0 0 0-.363 1.365 5.027 5.027 0 0 0 3.071 2.337 1 1 0 0 0 .5-1.936A3.011 3.011 0 0 1 10.4 49.5a1 1 0 0 0-1.363-.365ZM43.511 37.008a1 1 0 0 0-.869 1.115c.208 1.617.318 3.246.328 4.877 0 .916-.042 1.9-.126 2.919A1 1 0 0 0 43.76 47h.082a1 1 0 0 0 1-.919c.087-1.074.132-2.111.132-3.081a41.973 41.973 0 0 0-.344-5.123.992.992 0 0 0-1.119-.869ZM43.358 50.016a.993.993 0 0 0-1.159.809c-.057.326-.118.654-.181.988a1 1 0 0 0 1.963.375c.066-.341.126-.679.186-1.013a1 1 0 0 0-.809-1.159Z" id="Path"/><path d="M1.445 41.441c.68.74 1.572 1.25 2.555 1.459V48a9.017 9.017 0 0 0 9.014 9H17a5 5 0 0 0 4.916-5.94 43.627 43.627 0 0 1-.885-8.06c.044-2.708.34-5.407.885-8.06A5 5 0 0 0 17 29h-3.986A9.017 9.017 0 0 0 4 38v2.809a2.793 2.793 0 0 1-1.083-.722 2.847 2.847 0 0 1-.746-2.187 45.812 45.812 0 0 1 2.616-11.96c.18.033.36.053.543.06 1.55 0 2.96-.892 3.624-2.292A32.976 32.976 0 0 1 14.5 15.4a4.96 4.96 0 0 0 5.787-.052A16.3 16.3 0 0 1 30 12a16.3 16.3 0 0 1 9.714 3.351 4.921 4.921 0 0 0 5.786.049 32.985 32.985 0 0 1 5.546 8.306 3.755 3.755 0 0 0 4.131 2.236 52.564 52.564 0 0 1 2.661 12.967 2.853 2.853 0 0 1-.755 2.184c-.3.322-.67.568-1.083.718V38a9.017 9.017 0 0 0-9.014-9H43a5 5 0 0 0-4.916 5.94A43.6 43.6 0 0 1 38.97 43a43.6 43.6 0 0 1-.886 8.06A5 5 0 0 0 43 57h3.986A9.017 9.017 0 0 0 56 48v-4.1a4.77 4.77 0 0 0 2.552-1.446 4.9 4.9 0 0 0 1.28-3.7 53.772 53.772 0 0 0-2.792-13.542 4.012 4.012 0 0 0 1.243-4.92C52.266 7.585 41.691 0 30 0 18.309 0 7.735 7.586 1.727 20.29a4 4 0 0 0 1.2 4.905A47.825 47.825 0 0 0 .178 37.732a4.889 4.889 0 0 0 1.267 3.709ZM6 38a7.015 7.015 0 0 1 7.014-7H17a3 3 0 0 1 2.952 3.563A45.573 45.573 0 0 0 19.031 43c.044 2.835.352 5.66.921 8.437A3 3 0 0 1 17 55h-3.986A7.015 7.015 0 0 1 6 48V38Zm48 10a7.015 7.015 0 0 1-7.014 7H43a3 3 0 0 1-2.951-3.563c.568-2.778.877-5.602.921-8.437a45.635 45.635 0 0 0-.921-8.437A3 3 0 0 1 43 31h3.986A7.015 7.015 0 0 1 54 38v10ZM40.892 13.735A18.507 18.507 0 0 0 30 10a18.507 18.507 0 0 0-10.892 3.735 2.984 2.984 0 0 1-3.179.222c.146-.136.289-.278.437-.41a23.858 23.858 0 0 1 1.666-1.366c.254-.191.508-.38.767-.558.318-.219.641-.423.966-.623.261-.16.522-.323.787-.471.332-.186.67-.353 1.008-.519.265-.13.529-.265.8-.382.35-.154.706-.284 1.062-.416.264-.1.525-.2.791-.29.376-.121.758-.216 1.14-.314.252-.064.5-.14.755-.194.427-.091.858-.15 1.289-.21.215-.03.427-.076.643-.1a18.183 18.183 0 0 1 3.921 0c.216.022.428.068.643.1.43.06.861.12 1.286.21.253.054.5.13.754.194.382.1.764.193 1.142.315.263.085.522.19.783.287.358.132.717.264 1.07.419.266.116.527.25.789.378.342.168.683.336 1.018.524.263.146.521.307.78.467.327.2.654.406.975.628.256.176.509.364.762.553a23.376 23.376 0 0 1 1.671 1.369c.148.132.292.273.439.41a2.984 2.984 0 0 1-3.181-.223ZM3.534 21.147C9.2 9.158 19.1 2 30 2s20.8 7.158 26.475 19.145c.465.999.04 2.186-.954 2.661-.014.007-.03.01-.045.017h-.012c-.99.438-2.15.005-2.61-.975a34.606 34.606 0 0 0-6.521-9.513C41.616 8.538 35.969 6 30 6a20.8 20.8 0 0 0-3.325.266 21.835 21.835 0 0 0-8.339 3.244c-.206.131-.408.273-.611.412-.121.083-.243.16-.362.245a27.374 27.374 0 0 0-3.7 3.173c-2.69 2.784-4.894 6-6.52 9.514a2.018 2.018 0 0 1-2.606.972c-.006 0-.009-.008-.015-.01s-.015 0-.023 0l-.02-.007a2 2 0 0 1-.945-2.662Z" fill-rule="nonzero" id="Shape"/></g></g></svg>